<svg xmlns="http://www.w3.org/2000/svg" viewBox="0 0 960 562" width="960" height="562" role="img" aria-labelledby="title desc">
<title id="title">Scene 6: everyday invites</title>
<desc id="desc">Bob invites Alice. His client sends one Welcome for each of Alice's fresh devices. Alice accepts on her iPhone, and the decision is shared through the device group so her laptop joins too. Bob sees Alice as one member with two devices.</desc>
<style>
text{font-family:-apple-system, BlinkMacSystemFont, 'Segoe UI', Helvetica, Arial, sans-serif} .mono{font-family:ui-monospace, SFMono-Regular, Menlo, Consolas, monospace}
.bg{fill:#f6f8fa}
.t{fill:#1f2328} .m{fill:#59636e} .a{fill:#0969da} .d{fill:#cf222e}
.g{fill:#1a7f37} .y{fill:#9a6700} .r{fill:#8250df} .f{fill:#afb8c1}
.frame{fill:#2d333b;stroke:#2d333b} .scr{fill:#ffffff}
.card{fill:#f6f8fa;stroke:#d1d9e0} .cardf{fill:#ffffff;stroke:#d1d9e0}
.ln{fill:none;stroke:#d1d9e0} .lnf{fill:#d1d9e0}
.btn{fill:#0969da} .btn2{fill:#ffffff;stroke:#d1d9e0} .btnd{fill:#ffffff;stroke:#cf222e}
.ta{fill:#ddf4ff} .td{fill:#ffebe9} .tg{fill:#dafbe1} .ty{fill:#fff8c5} .tr{fill:#fbefff}
.sa{stroke:#0969da} .sd{stroke:#cf222e} .sg{stroke:#1a7f37} .sy{stroke:#9a6700}
.sr{stroke:#8250df} .sm{stroke:#59636e} .sf{stroke:#afb8c1} .sl{stroke:#d1d9e0}
.arr{fill:none;stroke-width:1.75} .dash{stroke-dasharray:5 4}
.grp{fill:#ddf4ff;stroke:#0969da;stroke-dasharray:6 4;fill-opacity:.45}
.grpx{fill:none;stroke:#afb8c1;stroke-dasharray:6 4}
@media (prefers-color-scheme: dark){
.bg{fill:#151b23}
.t{fill:#e6edf3} .m{fill:#9198a1} .a{fill:#4493f8} .d{fill:#f85149}
.g{fill:#3fb950} .y{fill:#d29922} .r{fill:#ab7df8} .f{fill:#484f58}
.frame{fill:#2f3742;stroke:#4a535e} .scr{fill:#0d1117}
.card{fill:#151b23;stroke:#3d444d} .cardf{fill:#0d1117;stroke:#3d444d}
.ln{fill:none;stroke:#3d444d} .lnf{fill:#3d444d}
.btn{fill:#1f6feb} .btn2{fill:#0d1117;stroke:#3d444d} .btnd{fill:#0d1117;stroke:#f85149}
.ta{fill:#12294a} .td{fill:#3c1618} .tg{fill:#12261e} .ty{fill:#2e2610} .tr{fill:#2a1d45}
.sa{stroke:#4493f8} .sd{stroke:#f85149} .sg{stroke:#3fb950} .sy{stroke:#d29922}
.sr{stroke:#ab7df8} .sm{stroke:#9198a1} .sf{stroke:#484f58} .sl{stroke:#3d444d}
.arr{fill:none;stroke-width:1.75} .dash{stroke-dasharray:5 4}
.grp{fill:#12294a;stroke:#4493f8;stroke-dasharray:6 4;fill-opacity:.45}
.grpx{fill:none;stroke:#484f58;stroke-dasharray:6 4}
}
</style>
<defs>
<marker id="ha" viewBox="0 0 10 10" refX="9" refY="5" markerWidth="7" markerHeight="7" orient="auto-start-reverse"><path d="M0,0 L10,5 L0,10 z" class="a"/></marker>
<marker id="hm" viewBox="0 0 10 10" refX="9" refY="5" markerWidth="7" markerHeight="7" orient="auto-start-reverse"><path d="M0,0 L10,5 L0,10 z" class="m"/></marker>
<marker id="hd" viewBox="0 0 10 10" refX="9" refY="5" markerWidth="7" markerHeight="7" orient="auto-start-reverse"><path d="M0,0 L10,5 L0,10 z" class="d"/></marker>
<marker id="hr" viewBox="0 0 10 10" refX="9" refY="5" markerWidth="7" markerHeight="7" orient="auto-start-reverse"><path d="M0,0 L10,5 L0,10 z" class="r"/></marker>
<marker id="hg" viewBox="0 0 10 10" refX="9" refY="5" markerWidth="7" markerHeight="7" orient="auto-start-reverse"><path d="M0,0 L10,5 L0,10 z" class="g"/></marker>
<marker id="hf" viewBox="0 0 10 10" refX="9" refY="5" markerWidth="7" markerHeight="7" orient="auto-start-reverse"><path d="M0,0 L10,5 L0,10 z" class="f"/></marker>
</defs>
<rect class="bg" x="0" y="0" width="960" height="562" rx="16"/>
<g transform="translate(34,90) scale(0.84)">
<rect x="0" y="0" width="210" height="400" rx="32" class="frame" stroke-width="1.5"/><rect x="10" y="10" width="190" height="380" rx="24" class="scr"/><rect x="75.0" y="17" width="60" height="14" rx="7" class="frame"/><g transform="translate(10,10)">
<text x="14" y="52" class="t" font-size="17" font-weight="700">Hiking crew</text><text x="14" y="72" class="m" font-size="11.5">Members</text><circle cx="32" cy="104" r="15" class="ta"/><text x="32" y="109.7" class="a" font-size="15.0" font-weight="700" text-anchor="middle">B</text><text x="56" y="108" class="t" font-size="12.5" font-weight="600">Bob (you)</text><circle cx="32" cy="150" r="15" class="ta"/><text x="32" y="155.7" class="a" font-size="15.0" font-weight="700" text-anchor="middle">A</text><text x="56" y="146" class="t" font-size="12.5" font-weight="600">Alice</text><text x="56" y="163" class="m" font-size="11">2 devices</text><rect x="146" y="140" width="9" height="16" rx="2" class="ln" stroke-width="1.4"/><rect x="160" y="142" width="16" height="11" rx="2" class="ln" stroke-width="1.4"/><circle cx="32" cy="196" r="15" class="ta"/><text x="32" y="201.7" class="a" font-size="15.0" font-weight="700" text-anchor="middle">C</text><text x="56" y="200" class="t" font-size="12.5" font-weight="600">Carol</text><rect x="12" y="238" width="166" height="44" rx="8" class="card"/><text x="22" y="256" class="m" font-size="11">No “Alice added a device”</text>
<text x="22" y="270" class="m" font-size="11">notice is shown</text>
</g>
</g><text x="122.2" y="450.0" class="m" font-size="13" font-weight="600" text-anchor="middle">Bob’s phone</text><rect x="360" y="40" width="100" height="22" rx="6" class="tr" stroke-width="1.2"/><rect x="360" y="40" width="100" height="22" rx="6" class="sr" fill="none"/>
<circle cx="372" cy="51" r="3" class="r"/><circle cx="382" cy="51" r="3" class="r" fill-opacity=".5"/>
<rect x="422" y="49" width="28" height="4" rx="2" class="r" fill-opacity=".45"/>
<rect x="360" y="66" width="100" height="22" rx="6" class="tr" stroke-width="1.2"/><rect x="360" y="66" width="100" height="22" rx="6" class="sr" fill="none"/>
<circle cx="372" cy="77" r="3" class="r"/><circle cx="382" cy="77" r="3" class="r" fill-opacity=".5"/>
<rect x="422" y="75" width="28" height="4" rx="2" class="r" fill-opacity=".45"/>
<rect x="360" y="92" width="100" height="22" rx="6" class="tr" stroke-width="1.2"/><rect x="360" y="92" width="100" height="22" rx="6" class="sr" fill="none"/>
<circle cx="372" cy="103" r="3" class="r"/><circle cx="382" cy="103" r="3" class="r" fill-opacity=".5"/>
<rect x="422" y="101" width="28" height="4" rx="2" class="r" fill-opacity=".45"/>
<text x="410.0" y="136" class="r" font-size="13" font-weight="700" text-anchor="middle">Relays</text><path d="M122,90 V58 H348" class="arr sa" marker-end="url(#ha)"/><circle cx="146" cy="36" r="10.5" class="a"/><text x="146" y="40.2" font-size="12" font-weight="700" text-anchor="middle" fill="#ffffff">1</text><text x="164" y="41" class="t" font-size="12.5" font-weight="600">one Welcome per fresh device</text><g transform="translate(440,116) scale(0.9)">
<rect x="0" y="0" width="210" height="400" rx="32" class="frame" stroke-width="1.5"/><rect x="10" y="10" width="190" height="380" rx="24" class="scr"/><rect x="75.0" y="17" width="60" height="14" rx="7" class="frame"/><g transform="translate(10,10)">
<text x="95" y="66" class="m" font-size="12" text-anchor="middle">Bob invited you to</text><circle cx="95" cy="108" r="24" class="ta"/><text x="95" y="117.12" class="a" font-size="24.0" font-weight="700" text-anchor="middle">H</text><text x="95" y="156" class="t" font-size="16" font-weight="700" text-anchor="middle">Hiking crew</text><text x="95" y="176" class="m" font-size="11.5" text-anchor="middle">3 members</text><rect x="20" y="204" width="150" height="32" rx="10" class="btn"/><text x="95.0" y="224.32" font-size="12" font-weight="600" text-anchor="middle" class="" fill="#ffffff">Accept</text><rect x="20" y="246" width="150" height="30" rx="15.0" class="btn2"/><text x="95.0" y="265.32" font-size="12" font-weight="600" text-anchor="middle" class="t">Decline</text><circle cx="120" cy="222" r="14" class="a" fill-opacity=".25"/>
</g>
</g><text x="534.5" y="500.0" class="m" font-size="13" font-weight="600" text-anchor="middle">Alice’s iPhone</text><circle cx="450" cy="324" r="10.5" class="a"/><text x="450" y="328.2" font-size="12" font-weight="700" text-anchor="middle" fill="#ffffff">2</text><g transform="translate(690,262) scale(0.78)">
<rect x="0" y="0" width="340" height="220" rx="12" class="frame" stroke-width="1.5"/><rect x="10" y="10" width="320" height="200" rx="5" class="scr"/><g transform="translate(10,10)">
<text x="20" y="32" class="t" font-size="15" font-weight="700">Hiking crew</text><line x1="20" x2="300" y1="44" y2="44" class="ln"/><rect x="60" y="58" width="200" height="24" rx="12" class="card"/><text x="160" y="74" class="m" font-size="11" text-anchor="middle">You joined · accepted on iPhone</text><circle cx="34" cy="112" r="12" class="ta"/><text x="34" y="116.56" class="a" font-size="12.0" font-weight="700" text-anchor="middle">B</text><rect x="52" y="98" width="150" height="30" rx="12" class="card"/><text x="64" y="118" class="t" font-size="12">Saturday at 8?</text>
</g><path d="M-24,220 H364 l-10,13 H-14 z" class="frame" stroke-width="1.5"/><rect x="142.0" y="220" width="56" height="5" rx="2" class="lnf"/>
</g><text x="822.6" y="469.74" class="m" font-size="13" font-weight="600" text-anchor="middle">Alice’s laptop</text><path d="M472,64 C520,64 535,80 535,104" class="arr sa" marker-end="url(#ha)"/><path d="M472,76 C760,76 900,120 900,250" class="arr sa" marker-end="url(#ha)"/><path d="M634,330 C660,330 670,350 696,350" class="arr sa dash" marker-end="url(#ha)"/><circle cx="700" cy="226" r="10.5" class="a"/><text x="700" y="230.2" font-size="12" font-weight="700" text-anchor="middle" fill="#ffffff">3</text><text x="718" y="231" class="t" font-size="12.5" font-weight="600">decision shared</text><text x="718" y="247" class="t" font-size="12.5" font-weight="600">in the device group</text><text x="480" y="540" class="m" font-size="13" text-anchor="middle">Accept on any device and the others follow. Decline works the same way, except every device leaves the chat.</text>
</svg>
